{
	"asset":{
		"generator":"Khronos glTF Blender I/O v4.0.44",
		"version":"2.0"
	},
	"extensionsUsed":[
		"KHR_materials_specular",
		"KHR_materials_ior"
	],
	"scene":0,
	"scenes":[
		{
			"name":"Scene",
			"nodes":[
				0,
				1,
				2,
				3,
				4,
				5,
				6,
				7,
				8,
				9,
				10,
				11,
				12
			]
		}
	],
	"nodes":[
		{
			"mesh":0,
			"name":"main",
			"rotation":[
				-0.0644175335764885,
				0.00899471901357174,
				-0.006653461139649153,
				0.9978603720664978
			],
			"translation":[
				-0.006561689544469118,
				0.23391205072402954,
				-0.14443586766719818
			]
		},
		{
			"mesh":1,
			"name":"interior",
			"rotation":[
				0.6600437164306641,
				0.0016555192414671183,
				-0.011064933612942696,
				0.7511438727378845
			],
			"scale":[
				0.0017028175061568618,
				0.00170281738974154,
				0.0017028175061568618
			],
			"translation":[
				0.00013512470468413085,
				0.23897475004196167,
				-0.09044405072927475
			]
		},
		{
			"mesh":2,
			"name":"visor",
			"rotation":[
				0.6600437164306641,
				0.0016555192414671183,
				-0.011064933612942696,
				0.7511438727378845
			],
			"scale":[
				0.0017028175061568618,
				0.00170281738974154,
				0.0017028175061568618
			],
			"translation":[
				-0.0022979886271059513,
				0.3162998557090759,
				-0.14565391838550568
			]
		},
		{
			"mesh":3,
			"name":"front vent",
			"rotation":[
				0.6273024082183838,
				0,
				0,
				0.7787758708000183
			],
			"scale":[
				0.0017028175061568618,
				0.0017028175061568618,
				0.0017028175061568618
			],
			"translation":[
				0.0004938840866088867,
				0.4622355103492737,
				-0.2569611072540283
			]
		},
		{
			"mesh":4,
			"name":"aero back",
			"rotation":[
				0.6600437164306641,
				0.0016555192414671183,
				-0.011064933612942696,
				0.7511438727378845
			],
			"scale":[
				0.0017028175061568618,
				0.00170281738974154,
				0.0017028175061568618
			],
			"translation":[
				0.007024361286312342,
				0.5033263564109802,
				0.08920920640230179
			]
		},
		{
			"mesh":5,
			"name":"screws",
			"rotation":[
				0.6600437164306641,
				0.0016555192414671183,
				-0.011064933612942696,
				0.7511438727378845
			],
			"scale":[
				0.0017028175061568618,
				0.00170281738974154,
				0.0017028175061568618
			],
			"translation":[
				-0.022842753678560257,
				0.3151061534881592,
				-0.09083503484725952
			]
		},
		{
			"mesh":6,
			"name":"visor padding",
			"rotation":[
				0.6600437164306641,
				0.0016555192414671183,
				-0.011064933612942696,
				0.7511438727378845
			],
			"scale":[
				0.0017028175061568618,
				0.00170281738974154,
				0.0017028175061568618
			],
			"translation":[
				-0.0019724417943507433,
				0.257893443107605,
				-0.22967149317264557
			]
		},
		{
			"mesh":7,
			"name":"bottom pading",
			"rotation":[
				0.6600437164306641,
				0.0016555192414671183,
				-0.011064933612942696,
				0.7511438727378845
			],
			"scale":[
				0.0017028175061568618,
				0.00170281738974154,
				0.0017028175061568618
			],
			"translation":[
				-0.0016618834342807531,
				0.09926456212997437,
				-0.07754981517791748
			]
		},
		{
			"mesh":8,
			"name":"INTERIOR PADDING",
			"rotation":[
				0.6600437164306641,
				0.0016555192414671183,
				-0.011064933612942696,
				0.7511438727378845
			],
			"scale":[
				0.0017028175061568618,
				0.00170281738974154,
				0.0017028175061568618
			],
			"translation":[
				0.0012470162473618984,
				0.31295257806777954,
				-0.08788764476776123
			]
		},
		{
			"mesh":9,
			"name":"GRILLS",
			"rotation":[
				0.6600437164306641,
				0.0016555192414671183,
				-0.011064933612942696,
				0.7511438727378845
			],
			"scale":[
				0.0017028175061568618,
				0.00170281738974154,
				0.0017028175061568618
			],
			"translation":[
				-0.004975682124495506,
				0.10981976985931396,
				-0.2804199457168579
			]
		},
		{
			"mesh":10,
			"name":"ALUMINIUM",
			"rotation":[
				0.6600437164306641,
				0.0016555192414671183,
				-0.011064933612942696,
				0.7511438727378845
			],
			"scale":[
				0.0017028175061568618,
				0.00170281738974154,
				0.0017028175061568618
			],
			"translation":[
				0.02807384915649891,
				0.06435534358024597,
				-0.15247254073619843
			]
		},
		{
			"mesh":11,
			"name":"RED FABRIC",
			"rotation":[
				0.6600437164306641,
				0.0016555192414671183,
				-0.011064933612942696,
				0.7511438727378845
			],
			"scale":[
				0.0017028175061568618,
				0.00170281738974154,
				0.0017028175061568618
			],
			"translation":[
				0.010332208126783371,
				0.06812795996665955,
				-0.1496632993221283
			]
		},
		{
			"mesh":12,
			"name":"visor logo",
			"rotation":[
				0.6600437164306641,
				0.0016555183101445436,
				-0.011064933612942696,
				0.7511438727378845
			],
			"translation":[
				-0.0022979886271059513,
				0.3162998557090759,
				-0.14565391838550568
			]
		}
	],
	"materials":[
		{
			"doubleSided":true,
			"name":"Material.001",
			"normalTexture":{
				"index":0
			},
			"pbrMetallicRoughness":{
				"baseColorTexture":{
					"index":1
				},
				"metallicRoughnessTexture":{
					"index":2
				}
			}
		},
		{
			"doubleSided":true,
			"name":"Procedural Felt.001",
			"pbrMetallicRoughness":{
				"metallicFactor":0,
				"roughnessFactor":0.8999999761581421
			}
		},
		{
			"alphaMode":"BLEND",
			"doubleSided":true,
			"name":"Glass Transpearant Green Tint",
			"pbrMetallicRoughness":{}
		},
		{
			"doubleSided":true,
			"extensions":{
				"KHR_materials_specular":{
					"specularFactor":0.5454545021057129
				},
				"KHR_materials_ior":{
					"ior":1.4500000476837158
				}
			},
			"name":"Black Plastic",
			"pbrMetallicRoughness":{
				"baseColorFactor":[
					0,
					0,
					0,
					1
				],
				"metallicFactor":0
			}
		},
		{
			"doubleSided":true,
			"name":"Brushed aluminium",
			"pbrMetallicRoughness":{
				"baseColorFactor":[
					0.800000011920929,
					0.800000011920929,
					0.800000011920929,
					1
				]
			}
		},
		{
			"doubleSided":true,
			"name":"Procedural Felt",
			"pbrMetallicRoughness":{
				"metallicFactor":0,
				"roughnessFactor":0.8999999761581421
			}
		},
		{
			"doubleSided":true,
			"name":"Procedural Felt.002",
			"pbrMetallicRoughness":{
				"metallicFactor":0,
				"roughnessFactor":0.8999999761581421
			}
		},
		{
			"doubleSided":true,
			"name":"visorlogo",
			"normalTexture":{
				"index":3,
				"texCoord":1
			},
			"pbrMetallicRoughness":{
				"baseColorTexture":{
					"index":4,
					"texCoord":1
				},
				"metallicRoughnessTexture":{
					"index":5,
					"texCoord":1
				}
			}
		}
	],
	"meshes":[
		{
			"name":"helm_uvex_fp5",
			"primitives":[
				{
					"attributes":{
						"POSITION":0,
						"NORMAL":1,
						"TEXCOORD_0":2
					},
					"indices":3,
					"material":0
				}
			]
		},
		{
			"name":"helm_uvex_fp5.001",
			"primitives":[
				{
					"attributes":{
						"POSITION":4,
						"NORMAL":5,
						"TEXCOORD_0":6
					},
					"indices":7,
					"material":1
				}
			]
		},
		{
			"name":"helm_uvex_fp5.002",
			"primitives":[
				{
					"attributes":{
						"POSITION":8,
						"NORMAL":9,
						"TEXCOORD_0":10,
						"TEXCOORD_1":11
					},
					"indices":12,
					"material":2
				}
			]
		},
		{
			"name":"helm_uvex_fp5.003",
			"primitives":[
				{
					"attributes":{
						"POSITION":13,
						"NORMAL":14,
						"TEXCOORD_0":15
					},
					"indices":16,
					"material":3
				}
			]
		},
		{
			"name":"helm_uvex_fp5.004",
			"primitives":[
				{
					"attributes":{
						"POSITION":17,
						"NORMAL":18,
						"TEXCOORD_0":19
					},
					"indices":20,
					"material":3
				}
			]
		},
		{
			"name":"helm_uvex_fp5.005",
			"primitives":[
				{
					"attributes":{
						"POSITION":21,
						"NORMAL":22,
						"TEXCOORD_0":23
					},
					"indices":24,
					"material":3
				},
				{
					"attributes":{
						"POSITION":25,
						"NORMAL":26,
						"TEXCOORD_0":27
					},
					"indices":28,
					"material":4
				}
			]
		},
		{
			"name":"helm_uvex_fp5.006",
			"primitives":[
				{
					"attributes":{
						"POSITION":29,
						"NORMAL":30,
						"TEXCOORD_0":31
					},
					"indices":32,
					"material":3
				}
			]
		},
		{
			"name":"helm_uvex_fp5.008",
			"primitives":[
				{
					"attributes":{
						"POSITION":33,
						"NORMAL":34,
						"TEXCOORD_0":35,
						"TEXCOORD_1":36
					},
					"indices":37,
					"material":3
				}
			]
		},
		{
			"name":"helm_uvex_fp5.009",
			"primitives":[
				{
					"attributes":{
						"POSITION":38,
						"NORMAL":39,
						"TEXCOORD_0":40,
						"TEXCOORD_1":41
					},
					"indices":42,
					"material":5
				}
			]
		},
		{
			"name":"helm_uvex_fp5.010",
			"primitives":[
				{
					"attributes":{
						"POSITION":43,
						"NORMAL":44,
						"TEXCOORD_0":45
					},
					"indices":46,
					"material":3
				}
			]
		},
		{
			"name":"helm_uvex_fp5.011",
			"primitives":[
				{
					"attributes":{
						"POSITION":47,
						"NORMAL":48,
						"TEXCOORD_0":49,
						"TEXCOORD_1":50
					},
					"indices":51,
					"material":4
				}
			]
		},
		{
			"name":"helm_uvex_fp5.012",
			"primitives":[
				{
					"attributes":{
						"POSITION":52,
						"NORMAL":53,
						"TEXCOORD_0":54
					},
					"indices":55,
					"material":6
				}
			]
		},
		{
			"name":"helm_uvex_fp5.013",
			"primitives":[
				{
					"attributes":{
						"POSITION":56,
						"NORMAL":57,
						"TEXCOORD_0":58,
						"TEXCOORD_1":59
					},
					"indices":60,
					"material":7
				}
			]
		}
	],
	"textures":[
		{
			"sampler":0,
			"source":0
		},
		{
			"sampler":0,
			"source":1
		},
		{
			"sampler":0,
			"source":2
		},
		{
			"sampler":0,
			"source":3
		},
		{
			"sampler":0,
			"source":4
		},
		{
			"sampler":0,
			"source":5
		}
	],
	"images":[
		{
			"mimeType":"image/png",
			"name":"Material.001_Normal",
			"uri":"Material_001_Normal.png"
		},
		{
			"mimeType":"image/png",
			"name":"Material.001_BaseColor",
			"uri":"Material_001_BaseColor.png"
		},
		{
			"mimeType":"image/png",
			"name":"Material.001_Metallic-Material.001_Roughness",
			"uri":"Material_001_Metallic-Material_001_Roughness.png"
		},
		{
			"mimeType":"image/png",
			"name":"checker_Normal",
			"uri":"checker_Normal.png"
		},
		{
			"mimeType":"image/png",
			"name":"checker_BaseColor",
			"uri":"checker_BaseColor.png"
		},
		{
			"mimeType":"image/png",
			"name":"checker_Metallic-checker_Roughness",
			"uri":"checker_Metallic-checker_Roughness.png"
		}
	],
	"accessors":[
		{
			"bufferView":0,
			"componentType":5126,
			"count":4937,
			"max":[
				0.23684321343898773,
				0.32257407903671265,
				0.37484315037727356
			],
			"min":[
				-0.22544507682323456,
				-0.19896796345710754,
				-0.18699289858341217
			],
			"type":"VEC3"
		},
		{
			"bufferView":1,
			"componentType":5126,
			"count":4937,
			"type":"VEC3"
		},
		{
			"bufferView":2,
			"componentType":5126,
			"count":4937,
			"type":"VEC2"
		},
		{
			"bufferView":3,
			"componentType":5123,
			"count":25806,
			"type":"SCALAR"
		},
		{
			"bufferView":4,
			"componentType":5126,
			"count":793,
			"max":[
				116.85567474365234,
				92.09187316894531,
				97.37799835205078
			],
			"min":[
				-116.85572052001953,
				-55.11902618408203,
				-180.5417022705078
			],
			"type":"VEC3"
		},
		{
			"bufferView":5,
			"componentType":5126,
			"count":793,
			"type":"VEC3"
		},
		{
			"bufferView":6,
			"componentType":5126,
			"count":793,
			"type":"VEC2"
		},
		{
			"bufferView":7,
			"componentType":5123,
			"count":3792,
			"type":"SCALAR"
		},
		{
			"bufferView":8,
			"componentType":5126,
			"count":2896,
			"max":[
				137.81417846679688,
				52.805206298828125,
				79.53252410888672
			],
			"min":[
				-134.75442504882812,
				-112.33008575439453,
				-40.041473388671875
			],
			"type":"VEC3"
		},
		{
			"bufferView":9,
			"componentType":5126,
			"count":2896,
			"type":"VEC3"
		},
		{
			"bufferView":10,
			"componentType":5126,
			"count":2896,
			"type":"VEC2"
		},
		{
			"bufferView":11,
			"componentType":5126,
			"count":2896,
			"type":"VEC2"
		},
		{
			"bufferView":12,
			"componentType":5123,
			"count":14304,
			"type":"SCALAR"
		},
		{
			"bufferView":13,
			"componentType":5126,
			"count":638,
			"max":[
				43.242431640625,
				49.48292922973633,
				51.861541748046875
			],
			"min":[
				-43.24256896972656,
				-44.99716567993164,
				-33.501251220703125
			],
			"type":"VEC3"
		},
		{
			"bufferView":14,
			"componentType":5126,
			"count":638,
			"type":"VEC3"
		},
		{
			"bufferView":15,
			"componentType":5126,
			"count":638,
			"type":"VEC2"
		},
		{
			"bufferView":16,
			"componentType":5123,
			"count":2472,
			"type":"SCALAR"
		},
		{
			"bufferView":17,
			"componentType":5126,
			"count":574,
			"max":[
				103.02025604248047,
				24.56586456298828,
				49.97883605957031
			],
			"min":[
				-103.02064514160156,
				-49.6395378112793,
				-38.16438293457031
			],
			"type":"VEC3"
		},
		{
			"bufferView":18,
			"componentType":5126,
			"count":574,
			"type":"VEC3"
		},
		{
			"bufferView":19,
			"componentType":5126,
			"count":574,
			"type":"VEC2"
		},
		{
			"bufferView":20,
			"componentType":5123,
			"count":3048,
			"type":"SCALAR"
		},
		{
			"bufferView":21,
			"componentType":5126,
			"count":17270,
			"max":[
				150.5140838623047,
				123.68402099609375,
				75.28889465332031
			],
			"min":[
				-122.24961853027344,
				-105.25698852539062,
				-128.48291015625
			],
			"type":"VEC3"
		},
		{
			"bufferView":22,
			"componentType":5126,
			"count":17270,
			"type":"VEC3"
		},
		{
			"bufferView":23,
			"componentType":5126,
			"count":17270,
			"type":"VEC2"
		},
		{
			"bufferView":24,
			"componentType":5123,
			"count":70992,
			"type":"SCALAR"
		},
		{
			"bufferView":25,
			"componentType":5126,
			"count":5074,
			"max":[
				146.13027954101562,
				119.21481323242188,
				70.00249481201172
			],
			"min":[
				-117.86611938476562,
				-41.67548751831055,
				-22.205703735351562
			],
			"type":"VEC3"
		},
		{
			"bufferView":26,
			"componentType":5126,
			"count":5074,
			"type":"VEC3"
		},
		{
			"bufferView":27,
			"componentType":5126,
			"count":5074,
			"type":"VEC2"
		},
		{
			"bufferView":28,
			"componentType":5123,
			"count":20208,
			"type":"SCALAR"
		},
		{
			"bufferView":29,
			"componentType":5126,
			"count":405,
			"max":[
				120.37832641601562,
				51.42173767089844,
				52.77362823486328
			],
			"min":[
				-120.3782730102539,
				-54.50465393066406,
				-51.473670959472656
			],
			"type":"VEC3"
		},
		{
			"bufferView":30,
			"componentType":5126,
			"count":405,
			"type":"VEC3"
		},
		{
			"bufferView":31,
			"componentType":5126,
			"count":405,
			"type":"VEC2"
		},
		{
			"bufferView":32,
			"componentType":5123,
			"count":1920,
			"type":"SCALAR"
		},
		{
			"bufferView":33,
			"componentType":5126,
			"count":784,
			"max":[
				110.17803955078125,
				165.37112426757812,
				41.749908447265625
			],
			"min":[
				-110.17806243896484,
				-131.5208740234375,
				-39.13319396972656
			],
			"type":"VEC3"
		},
		{
			"bufferView":34,
			"componentType":5126,
			"count":784,
			"type":"VEC3"
		},
		{
			"bufferView":35,
			"componentType":5126,
			"count":784,
			"type":"VEC2"
		},
		{
			"bufferView":36,
			"componentType":5126,
			"count":784,
			"type":"VEC2"
		},
		{
			"bufferView":37,
			"componentType":5123,
			"count":2736,
			"type":"SCALAR"
		},
		{
			"bufferView":38,
			"componentType":5126,
			"count":3280,
			"max":[
				123.55525207519531,
				160.45262145996094,
				165.96080017089844
			],
			"min":[
				-123.55534362792969,
				-143.14166259765625,
				-144.63629150390625
			],
			"type":"VEC3"
		},
		{
			"bufferView":39,
			"componentType":5126,
			"count":3280,
			"type":"VEC3"
		},
		{
			"bufferView":40,
			"componentType":5126,
			"count":3280,
			"type":"VEC2"
		},
		{
			"bufferView":41,
			"componentType":5126,
			"count":3280,
			"type":"VEC2"
		},
		{
			"bufferView":42,
			"componentType":5123,
			"count":11808,
			"type":"SCALAR"
		},
		{
			"bufferView":43,
			"componentType":5126,
			"count":47768,
			"max":[
				77.6613998413086,
				28.446548461914062,
				38.215484619140625
			],
			"min":[
				-77.66450500488281,
				-18.180160522460938,
				-25.924415588378906
			],
			"type":"VEC3"
		},
		{
			"bufferView":44,
			"componentType":5126,
			"count":47768,
			"type":"VEC3"
		},
		{
			"bufferView":45,
			"componentType":5126,
			"count":47768,
			"type":"VEC2"
		},
		{
			"bufferView":46,
			"componentType":5123,
			"count":241848,
			"type":"SCALAR"
		},
		{
			"bufferView":47,
			"componentType":5126,
			"count":768,
			"max":[
				9.817455291748047,
				18.41260528564453,
				13.807342529296875
			],
			"min":[
				-8.139544486999512,
				-16.319793701171875,
				-16.661457061767578
			],
			"type":"VEC3"
		},
		{
			"bufferView":48,
			"componentType":5126,
			"count":768,
			"type":"VEC3"
		},
		{
			"bufferView":49,
			"componentType":5126,
			"count":768,
			"type":"VEC2"
		},
		{
			"bufferView":50,
			"componentType":5126,
			"count":768,
			"type":"VEC2"
		},
		{
			"bufferView":51,
			"componentType":5123,
			"count":2160,
			"type":"SCALAR"
		},
		{
			"bufferView":52,
			"componentType":5126,
			"count":300,
			"max":[
				23.17412567138672,
				18.258102416992188,
				15.082314491271973
			],
			"min":[
				-38.92147445678711,
				-15.921302795410156,
				-18.341285705566406
			],
			"type":"VEC3"
		},
		{
			"bufferView":53,
			"componentType":5126,
			"count":300,
			"type":"VEC3"
		},
		{
			"bufferView":54,
			"componentType":5126,
			"count":300,
			"type":"VEC2"
		},
		{
			"bufferView":55,
			"componentType":5123,
			"count":1776,
			"type":"SCALAR"
		},
		{
			"bufferView":56,
			"componentType":5126,
			"count":516,
			"max":[
				0.22364777326583862,
				0.023004911839962006,
				-0.0020327747333794832
			],
			"min":[
				-0.2184375822544098,
				-0.1747838407754898,
				-0.04994548484683037
			],
			"type":"VEC3"
		},
		{
			"bufferView":57,
			"componentType":5126,
			"count":516,
			"type":"VEC3"
		},
		{
			"bufferView":58,
			"componentType":5126,
			"count":516,
			"type":"VEC2"
		},
		{
			"bufferView":59,
			"componentType":5126,
			"count":516,
			"type":"VEC2"
		},
		{
			"bufferView":60,
			"componentType":5123,
			"count":1956,
			"type":"SCALAR"
		}
	],
	"bufferViews":[
		{
			"buffer":0,
			"byteLength":59244,
			"byteOffset":0,
			"target":34962
		},
		{
			"buffer":0,
			"byteLength":59244,
			"byteOffset":59244,
			"target":34962
		},
		{
			"buffer":0,
			"byteLength":39496,
			"byteOffset":118488,
			"target":34962
		},
		{
			"buffer":0,
			"byteLength":51612,
			"byteOffset":157984,
			"target":34963
		},
		{
			"buffer":0,
			"byteLength":9516,
			"byteOffset":209596,
			"target":34962
		},
		{
			"buffer":0,
			"byteLength":9516,
			"byteOffset":219112,
			"target":34962
		},
		{
			"buffer":0,
			"byteLength":6344,
			"byteOffset":228628,
			"target":34962
		},
		{
			"buffer":0,
			"byteLength":7584,
			"byteOffset":234972,
			"target":34963
		},
		{
			"buffer":0,
			"byteLength":34752,
			"byteOffset":242556,
			"target":34962
		},
		{
			"buffer":0,
			"byteLength":34752,
			"byteOffset":277308,
			"target":34962
		},
		{
			"buffer":0,
			"byteLength":23168,
			"byteOffset":312060,
			"target":34962
		},
		{
			"buffer":0,
			"byteLength":23168,
			"byteOffset":335228,
			"target":34962
		},
		{
			"buffer":0,
			"byteLength":28608,
			"byteOffset":358396,
			"target":34963
		},
		{
			"buffer":0,
			"byteLength":7656,
			"byteOffset":387004,
			"target":34962
		},
		{
			"buffer":0,
			"byteLength":7656,
			"byteOffset":394660,
			"target":34962
		},
		{
			"buffer":0,
			"byteLength":5104,
			"byteOffset":402316,
			"target":34962
		},
		{
			"buffer":0,
			"byteLength":4944,
			"byteOffset":407420,
			"target":34963
		},
		{
			"buffer":0,
			"byteLength":6888,
			"byteOffset":412364,
			"target":34962
		},
		{
			"buffer":0,
			"byteLength":6888,
			"byteOffset":419252,
			"target":34962
		},
		{
			"buffer":0,
			"byteLength":4592,
			"byteOffset":426140,
			"target":34962
		},
		{
			"buffer":0,
			"byteLength":6096,
			"byteOffset":430732,
			"target":34963
		},
		{
			"buffer":0,
			"byteLength":207240,
			"byteOffset":436828,
			"target":34962
		},
		{
			"buffer":0,
			"byteLength":207240,
			"byteOffset":644068,
			"target":34962
		},
		{
			"buffer":0,
			"byteLength":138160,
			"byteOffset":851308,
			"target":34962
		},
		{
			"buffer":0,
			"byteLength":141984,
			"byteOffset":989468,
			"target":34963
		},
		{
			"buffer":0,
			"byteLength":60888,
			"byteOffset":1131452,
			"target":34962
		},
		{
			"buffer":0,
			"byteLength":60888,
			"byteOffset":1192340,
			"target":34962
		},
		{
			"buffer":0,
			"byteLength":40592,
			"byteOffset":1253228,
			"target":34962
		},
		{
			"buffer":0,
			"byteLength":40416,
			"byteOffset":1293820,
			"target":34963
		},
		{
			"buffer":0,
			"byteLength":4860,
			"byteOffset":1334236,
			"target":34962
		},
		{
			"buffer":0,
			"byteLength":4860,
			"byteOffset":1339096,
			"target":34962
		},
		{
			"buffer":0,
			"byteLength":3240,
			"byteOffset":1343956,
			"target":34962
		},
		{
			"buffer":0,
			"byteLength":3840,
			"byteOffset":1347196,
			"target":34963
		},
		{
			"buffer":0,
			"byteLength":9408,
			"byteOffset":1351036,
			"target":34962
		},
		{
			"buffer":0,
			"byteLength":9408,
			"byteOffset":1360444,
			"target":34962
		},
		{
			"buffer":0,
			"byteLength":6272,
			"byteOffset":1369852,
			"target":34962
		},
		{
			"buffer":0,
			"byteLength":6272,
			"byteOffset":1376124,
			"target":34962
		},
		{
			"buffer":0,
			"byteLength":5472,
			"byteOffset":1382396,
			"target":34963
		},
		{
			"buffer":0,
			"byteLength":39360,
			"byteOffset":1387868,
			"target":34962
		},
		{
			"buffer":0,
			"byteLength":39360,
			"byteOffset":1427228,
			"target":34962
		},
		{
			"buffer":0,
			"byteLength":26240,
			"byteOffset":1466588,
			"target":34962
		},
		{
			"buffer":0,
			"byteLength":26240,
			"byteOffset":1492828,
			"target":34962
		},
		{
			"buffer":0,
			"byteLength":23616,
			"byteOffset":1519068,
			"target":34963
		},
		{
			"buffer":0,
			"byteLength":573216,
			"byteOffset":1542684,
			"target":34962
		},
		{
			"buffer":0,
			"byteLength":573216,
			"byteOffset":2115900,
			"target":34962
		},
		{
			"buffer":0,
			"byteLength":382144,
			"byteOffset":2689116,
			"target":34962
		},
		{
			"buffer":0,
			"byteLength":483696,
			"byteOffset":3071260,
			"target":34963
		},
		{
			"buffer":0,
			"byteLength":9216,
			"byteOffset":3554956,
			"target":34962
		},
		{
			"buffer":0,
			"byteLength":9216,
			"byteOffset":3564172,
			"target":34962
		},
		{
			"buffer":0,
			"byteLength":6144,
			"byteOffset":3573388,
			"target":34962
		},
		{
			"buffer":0,
			"byteLength":6144,
			"byteOffset":3579532,
			"target":34962
		},
		{
			"buffer":0,
			"byteLength":4320,
			"byteOffset":3585676,
			"target":34963
		},
		{
			"buffer":0,
			"byteLength":3600,
			"byteOffset":3589996,
			"target":34962
		},
		{
			"buffer":0,
			"byteLength":3600,
			"byteOffset":3593596,
			"target":34962
		},
		{
			"buffer":0,
			"byteLength":2400,
			"byteOffset":3597196,
			"target":34962
		},
		{
			"buffer":0,
			"byteLength":3552,
			"byteOffset":3599596,
			"target":34963
		},
		{
			"buffer":0,
			"byteLength":6192,
			"byteOffset":3603148,
			"target":34962
		},
		{
			"buffer":0,
			"byteLength":6192,
			"byteOffset":3609340,
			"target":34962
		},
		{
			"buffer":0,
			"byteLength":4128,
			"byteOffset":3615532,
			"target":34962
		},
		{
			"buffer":0,
			"byteLength":4128,
			"byteOffset":3619660,
			"target":34962
		},
		{
			"buffer":0,
			"byteLength":3912,
			"byteOffset":3623788,
			"target":34963
		}
	],
	"samplers":[
		{
			"magFilter":9729,
			"minFilter":9987
		}
	],
	"buffers":[
		{
			"byteLength":3627700,
			"uri":"4khelmet.bin"
		}
	]
}
